<?xml version="1.0" encoding="UTF-8"?><svg id="uuid-b767834d-36a5-4e09-9143-8d42f7f50bb2" xmlns="http://www.w3.org/2000/svg" viewBox="0 0 1400.43 700"><path d="M1287.61,227.75h23.85v119.57h-23.85v-119.57ZM1248.78,298.17c-.75-5.37-3.01-9.72-6.77-13.05-3.76-3.44-8.38-5.16-13.86-5.16s-9.88,1.67-13.54,5c-3.55,3.22-5.8,7.63-6.77,13.21h40.93ZM1228.96,349.9c-8.81,0-16.71-1.83-23.69-5.48-6.88-3.76-12.25-9.02-16.11-15.79-3.87-6.77-5.8-14.5-5.8-23.2s1.93-16.01,5.8-22.56c3.87-6.55,9.24-11.6,16.11-15.15,6.88-3.65,14.72-5.48,23.53-5.48s16.38,1.83,23.04,5.48c6.77,3.65,11.98,8.76,15.63,15.31,3.76,6.55,5.64,14.13,5.64,22.72,0,3.65-.11,6.07-.32,7.25h-64.78c.97,5.91,3.38,10.58,7.25,14.02,3.97,3.44,8.86,5.16,14.66,5.16,4.51,0,8.49-1.02,11.92-3.06,3.44-2.04,6.07-4.78,7.9-8.22l20.3,5.16c-2.58,7.41-7.57,13.27-14.99,17.56-7.41,4.19-16.11,6.28-26.11,6.28ZM1124,328.95c6.34,0,11.55-2.15,15.63-6.45,4.08-4.3,6.12-9.78,6.12-16.44s-2.04-12.35-6.12-16.76c-4.08-4.4-9.29-6.61-15.63-6.61s-11.6,2.2-15.79,6.61c-4.08,4.4-6.12,9.99-6.12,16.76s2.04,12.14,6.12,16.44c4.19,4.3,9.45,6.45,15.79,6.45ZM1123.84,386.96c-12.03,0-21.97-2.52-29.81-7.57-7.84-5.05-12.78-12.19-14.83-21.43l23.04-4.51c1.5,4.51,4.08,8.06,7.73,10.64,3.65,2.58,8.06,3.87,13.21,3.87,6.66,0,11.92-2.04,15.79-6.12,3.97-3.97,5.96-9.35,5.96-16.11v-9.19h-1.61c-6.98,7.95-15.68,11.92-26.11,11.92-7.52,0-14.23-1.77-20.14-5.32-5.91-3.55-10.53-8.49-13.86-14.83-3.33-6.45-5-13.86-5-22.24s1.61-16.33,4.83-22.88c3.33-6.66,7.9-11.76,13.7-15.31,5.91-3.65,12.68-5.48,20.3-5.48,11.07,0,20.04,4.3,26.91,12.89h1.61v-10.47h23.2v81.54c0,12.68-4.03,22.61-12.09,29.81-8.06,7.2-19.01,10.8-32.87,10.8ZM984.21,264.82h23.85v11.6h1.61c6.12-9.35,14.13-14.02,24.01-14.02,6.12,0,11.55,1.5,16.28,4.51,4.73,2.9,8.38,6.98,10.96,12.25,2.58,5.16,3.87,11.01,3.87,17.56v50.6h-23.85v-47.22c0-5.16-1.4-9.29-4.19-12.41-2.79-3.22-6.55-4.83-11.28-4.83s-8.97,1.72-12.41,5.16c-3.33,3.44-5,7.73-5,12.89v46.41h-23.85v-82.51ZM923.1,333.79c5.91,0,10.74-1.72,14.5-5.16,3.76-3.44,5.64-7.73,5.64-12.89v-5.8l-16.92,2.09c-5.59.64-9.72,2.04-12.41,4.19-2.58,2.04-3.87,4.57-3.87,7.57s1.13,5.59,3.38,7.41c2.36,1.72,5.59,2.58,9.67,2.58ZM915.2,349.42c-8.59,0-15.52-2.09-20.79-6.28-5.16-4.3-7.73-10.1-7.73-17.4,0-15.58,13-24.98,39-28.2l17.56-2.09v-3.38c0-3.97-1.34-7.14-4.03-9.51-2.58-2.47-6.23-3.71-10.96-3.71-4.4,0-7.95,1.18-10.64,3.55-2.69,2.26-3.97,5.43-3.87,9.51h-23.37c0-9.02,3.44-16.22,10.31-21.59,6.98-5.37,16.28-8.06,27.88-8.06s21.06,2.79,28.04,8.38c6.98,5.48,10.47,12.89,10.47,22.24v54.47h-23.85v-10.47h-1.61c-2.58,4.08-6.18,7.2-10.8,9.35-4.51,2.15-9.72,3.22-15.63,3.22ZM741.71,264.82h23.69v12.25h1.61c2.36-4.51,5.64-8.11,9.83-10.8,4.19-2.69,8.86-4.03,14.02-4.03s10.37,1.45,14.99,4.35c4.73,2.79,8.16,6.55,10.31,11.28h1.61c2.58-4.83,6.07-8.59,10.47-11.28,4.51-2.79,9.67-4.19,15.47-4.19s11.39,1.45,16.11,4.35c4.73,2.79,8.43,6.77,11.12,11.92,2.69,5.16,4.03,11.01,4.03,17.56v51.08h-23.85v-47.05c0-5.05-1.45-9.19-4.35-12.41-2.9-3.33-6.61-5.05-11.12-5.16-4.62,0-8.43,1.67-11.44,5-2.9,3.22-4.35,7.41-4.35,12.57v47.05h-24.01v-47.05c0-5.37-1.34-9.61-4.03-12.73-2.69-3.22-6.28-4.83-10.8-4.83s-8.49,1.61-11.28,4.83c-2.79,3.22-4.19,7.47-4.19,12.73v47.05h-23.85v-82.51ZM681.63,329.6c6.34,0,11.55-2.2,15.63-6.61,4.08-4.4,6.12-10.04,6.12-16.92s-2.04-12.46-6.12-16.76c-4.08-4.4-9.29-6.61-15.63-6.61s-11.71,2.2-15.79,6.61c-4.08,4.3-6.12,9.88-6.12,16.76s2.04,12.52,6.12,16.92c4.08,4.4,9.35,6.61,15.79,6.61ZM681.63,349.9c-9.13,0-17.13-1.77-24.01-5.32-6.88-3.65-12.25-8.76-16.11-15.31-3.76-6.66-5.64-14.4-5.64-23.2s1.88-16.49,5.64-23.04c3.87-6.66,9.24-11.76,16.11-15.31,6.88-3.65,14.88-5.48,24.01-5.48s16.97,1.83,23.85,5.48c6.98,3.55,12.35,8.65,16.11,15.31,3.87,6.55,5.8,14.23,5.8,23.04s-1.93,16.54-5.8,23.2c-3.76,6.55-9.13,11.66-16.11,15.31-6.88,3.55-14.83,5.32-23.85,5.32ZM578.87,329.6c6.34,0,11.55-2.2,15.63-6.61,4.08-4.4,6.12-10.04,6.12-16.92s-2.04-12.46-6.12-16.76c-4.08-4.4-9.29-6.61-15.63-6.61s-11.71,2.2-15.79,6.61c-4.08,4.3-6.12,9.88-6.12,16.76s2.04,12.52,6.12,16.92c4.08,4.4,9.35,6.61,15.79,6.61ZM578.87,349.9c-9.13,0-17.13-1.77-24.01-5.32-6.88-3.65-12.25-8.76-16.11-15.31-3.76-6.66-5.64-14.4-5.64-23.2s1.88-16.49,5.64-23.04c3.87-6.66,9.24-11.76,16.11-15.31,6.88-3.65,14.88-5.48,24.01-5.48s16.97,1.83,23.85,5.48c6.98,3.55,12.35,8.65,16.11,15.31,3.87,6.55,5.8,14.23,5.8,23.04s-1.93,16.54-5.8,23.2c-3.76,6.55-9.13,11.66-16.11,15.31-6.88,3.55-14.83,5.32-23.85,5.32ZM471.2,264.82h23.53v11.28h1.77c1.83-3.87,4.57-6.98,8.22-9.35,3.76-2.36,7.79-3.55,12.09-3.55,3.44,0,6.55.7,9.35,2.09v21.43c-2.15-.97-4.51-1.72-7.09-2.26-2.47-.54-4.62-.81-6.45-.81-5.26,0-9.51,1.99-12.73,5.96-3.22,3.97-4.83,9.13-4.83,15.47v42.22h-23.85v-82.51Z" fill="#fff" stroke-width="0"/><path d="M471.52,441.59v-47.81h30.45v5.43h-24.21v14.92h21.5v5.42h-21.5v22.04h-6.24Z" fill="#fff" stroke="#fff" stroke-miterlimit="10" stroke-width="1.03"/><path d="M523,417.65c0-14.92,10.71-25.56,25.84-25.56s25.84,10.65,25.84,25.56-10.71,25.63-25.84,25.63-25.84-10.58-25.84-25.63ZM568.43,417.65c0-11.73-8.14-20.14-19.6-20.14s-19.67,8.41-19.67,20.14,8.21,20.21,19.67,20.21,19.6-8.48,19.6-20.21Z" fill="#fff" stroke="#fff" stroke-miterlimit="10" stroke-width="1.03"/><path d="M599.76,423.21v-29.43h6.24v29.43c0,8.55,5.63,14.65,13.43,14.65s13.36-6.1,13.36-14.65v-29.43h6.17v29.43c0,11.66-8.14,20.07-19.53,20.07s-19.67-8.41-19.67-20.07Z" fill="#fff" stroke="#fff" stroke-miterlimit="10" stroke-width="1.03"/><path d="M667.1,441.59v-47.81h8.88l22.65,39.67h.61v-39.67h6.17v47.81h-8.82l-22.65-39.67h-.68v39.67h-6.17Z" fill="#fff" stroke="#fff" stroke-miterlimit="10" stroke-width="1.03"/><path d="M733.89,441.59v-47.81h15.33c16.55,0,27.53,9.43,27.53,23.87s-10.99,23.94-27.53,23.94h-15.33ZM740.06,436.17h9.16c12.82,0,21.43-7.05,21.43-18.51s-8.68-18.44-21.43-18.44h-9.16v36.96Z" fill="#fff" stroke="#fff" stroke-miterlimit="10" stroke-width="1.03"/><path d="M796.55,441.59l18.04-47.81h8.41l17.84,47.81h-5.9l-4.07-10.71h-24.35l-4.07,10.71h-5.9ZM808.35,425.79h20.75l-10.04-26.58h-.61l-10.1,26.58Z" fill="#fff" stroke="#fff" stroke-miterlimit="10" stroke-width="1.03"/><path d="M871.55,441.59v-42.38h-15.8v-5.43h37.84v5.43h-15.87v42.38h-6.17Z" fill="#fff" stroke="#fff" stroke-miterlimit="10" stroke-width="1.03"/><path d="M916.44,441.59v-47.81h6.17v47.81h-6.17Z" fill="#fff" stroke="#fff" stroke-miterlimit="10" stroke-width="1.03"/><path d="M948.11,417.65c0-14.92,10.71-25.56,25.84-25.56s25.84,10.65,25.84,25.56-10.71,25.63-25.84,25.63-25.84-10.58-25.84-25.63ZM993.55,417.65c0-11.73-8.14-20.14-19.6-20.14s-19.67,8.41-19.67,20.14,8.2,20.21,19.67,20.21,19.6-8.48,19.6-20.21Z" fill="#fff" stroke="#fff" stroke-miterlimit="10" stroke-width="1.03"/><path d="M1025.28,441.59v-47.81h8.88l22.65,39.67h.61v-39.67h6.17v47.81h-8.82l-22.65-39.67h-.68v39.67h-6.17Z" fill="#fff" stroke="#fff" stroke-miterlimit="10" stroke-width="1.03"/><path d="M279.74,466.55v-24.19c0-4.92-4-8.92-8.92-8.92h-49.36c-4.92,0-8.92,4-8.92,8.92v24.19c-5.67,1.36-9.89,6.47-9.89,12.55v18.04c0,1.43,1.16,2.59,2.59,2.59h7.3v6.27c0,1.43,1.16,2.59,2.59,2.59s2.59-1.16,2.59-2.59v-6.27h56.83v6.27c0,1.43,1.16,2.59,2.59,2.59s2.59-1.16,2.59-2.59v-6.27h7.3c1.43,0,2.59-1.16,2.59-2.59v-18.04c0-6.08-4.22-11.19-9.89-12.55ZM217.73,442.36c0-2.06,1.68-3.74,3.74-3.74h49.36c2.06,0,3.74,1.68,3.74,3.74v23.83h-8.56v-4.09c0-6.77-5.51-12.28-12.28-12.28h-15.14c-6.77,0-12.28,5.51-12.28,12.28v4.09h-8.56v-23.83ZM207.83,494.54v-15.45c0-4.26,3.47-7.73,7.73-7.73h61.16c4.26,0,7.73,3.47,7.73,7.73v15.45h-76.62Z" fill="#fff" stroke-width="0"/><path d="M353.07,406.5l-17.1-17.1c-3.48-3.48-9.14-3.48-12.61,0l-34.9,34.9c-3.48,3.48-3.48,9.14,0,12.61l17.1,17.1c-3.04,4.97-2.42,11.57,1.88,15.87l12.76,12.76c1.01,1.01,2.65,1.01,3.66,0l5.16-5.16,4.43,4.43c1.01,1.01,2.65,1.01,3.66,0,1.01-1.01,1.01-2.65,0-3.66l-4.43-4.43,40.19-40.19,4.43,4.43c1.01,1.01,2.65,1.01,3.66,0,1.01-1.01,1.01-2.65,0-3.66l-4.43-4.43,5.16-5.16c1.01-1.01,1.01-2.65,0-3.66l-12.76-12.76c-4.3-4.3-10.9-4.92-15.87-1.88ZM292.12,433.25c-1.46-1.46-1.46-3.83,0-5.28l34.9-34.9c1.46-1.46,3.83-1.46,5.28,0l16.85,16.85-6.06,6.06-2.89-2.89c-4.79-4.79-12.58-4.79-17.37,0l-10.71,10.71c-4.79,4.79-4.79,12.58,0,17.37l2.89,2.89-6.06,6.06-16.85-16.85ZM322.02,477.15l-10.92-10.92c-3.01-3.01-3.01-7.92,0-10.93l43.25-43.25c3.01-3.01,7.92-3.01,10.93,0l10.92,10.92-54.18,54.18Z" fill="#fff" stroke-width="0"/><path d="M131.01,379.8h24.19c4.92,0,8.92-4,8.92-8.92v-49.36c0-4.92-4-8.92-8.92-8.92h-24.19c-1.36-5.67-6.47-9.89-12.55-9.89h-18.04c-1.43,0-2.59,1.16-2.59,2.59v7.3h-6.27c-1.43,0-2.59,1.16-2.59,2.59s1.16,2.59,2.59,2.59h6.27v56.83h-6.27c-1.43,0-2.59,1.16-2.59,2.59s1.16,2.59,2.59,2.59h6.27v7.3c0,1.43,1.16,2.59,2.59,2.59h18.04c6.08,0,11.19-4.22,12.55-9.89ZM155.19,317.79c2.06,0,3.74,1.68,3.74,3.74v49.36c0,2.06-1.68,3.74-3.74,3.74h-23.83v-8.56h4.09c6.77,0,12.28-5.51,12.28-12.28v-15.14c0-6.77-5.51-12.28-12.28-12.28h-4.09v-8.56h23.83ZM103.01,307.89h15.45c4.26,0,7.73,3.47,7.73,7.73v61.16c0,4.26-3.47,7.73-7.73,7.73h-15.45v-76.62Z" fill="#fff" stroke-width="0"/><path d="M185.95,454.3l17.1-17.1c3.48-3.48,3.48-9.14,0-12.61l-34.9-34.9c-3.48-3.48-9.14-3.48-12.61,0l-17.1,17.1c-4.97-3.04-11.57-2.42-15.87,1.88l-12.76,12.76c-1.01,1.01-1.01,2.65,0,3.66l5.16,5.16-4.43,4.43c-1.01,1.01-1.01,2.65,0,3.66,1.01,1.01,2.65,1.01,3.66,0l4.43-4.43,40.19,40.19-4.43,4.43c-1.01,1.01-1.01,2.65,0,3.66,1.01,1.01,2.65,1.01,3.66,0l4.43-4.43,5.16,5.16c1.01,1.01,2.65,1.01,3.66,0l12.76-12.76c4.3-4.3,4.92-10.9,1.88-15.87ZM159.2,393.35c1.46-1.46,3.83-1.46,5.28,0l34.9,34.9c1.46,1.46,1.46,3.83,0,5.28l-16.85,16.85-6.06-6.06,2.89-2.89c4.79-4.79,4.79-12.58,0-17.37l-10.71-10.71c-4.79-4.79-12.58-4.79-17.37,0l-2.89,2.89-6.06-6.06,16.85-16.85ZM115.3,423.26l10.92-10.92c3.01-3.01,7.92-3.01,10.93,0l43.25,43.25c3.01,3.01,3.01,7.92,0,10.93l-10.92,10.92-54.18-54.18Z" fill="#fff" stroke-width="0"/><path d="M361.73,312.6h-24.19c-4.92,0-8.92,4-8.92,8.92v49.36c0,4.92,4,8.92,8.92,8.92h24.19c1.36,5.67,6.47,9.89,12.55,9.89h18.04c1.43,0,2.59-1.16,2.59-2.59v-7.3h6.27c1.43,0,2.59-1.16,2.59-2.59s-1.16-2.59-2.59-2.59h-6.27s0-56.83,0-56.83h6.27c1.43,0,2.59-1.16,2.59-2.59s-1.16-2.59-2.59-2.59h-6.27v-7.3c0-1.43-1.16-2.59-2.59-2.59h-18.04c-6.08,0-11.19,4.22-12.55,9.89ZM337.55,374.62c-2.06,0-3.74-1.68-3.74-3.74v-49.36c0-2.06,1.68-3.74,3.74-3.74h23.83v8.56h-4.09c-6.77,0-12.28,5.51-12.28,12.28v15.14c0,6.77,5.51,12.28,12.28,12.28h4.09v8.56h-23.83ZM389.73,384.51h-15.45c-4.26,0-7.73-3.47-7.73-7.73v-61.16c0-4.26,3.47-7.73,7.73-7.73h15.45v76.62Z" fill="#fff" stroke-width="0"/><path d="M308.55,237.79l-17.1,17.1c-3.48,3.48-3.48,9.14,0,12.61l34.9,34.9c3.48,3.48,9.14,3.48,12.61,0l17.1-17.1c4.97,3.04,11.57,2.42,15.87-1.88l12.76-12.76c1.01-1.01,1.01-2.65,0-3.66l-5.16-5.16,4.43-4.43c1.01-1.01,1.01-2.65,0-3.66-1.01-1.01-2.65-1.01-3.66,0l-4.43,4.43-40.19-40.19,4.43-4.43c1.01-1.01,1.01-2.65,0-3.66-1.01-1.01-2.65-1.01-3.66,0l-4.43,4.43-5.16-5.16c-1.01-1.01-2.65-1.01-3.66,0l-12.76,12.76c-4.3,4.3-4.92,10.9-1.88,15.87ZM335.3,298.74c-1.46,1.46-3.83,1.46-5.28,0l-34.9-34.9c-1.46-1.46-1.46-3.83,0-5.28l16.85-16.85,6.06,6.06-2.89,2.89c-4.79,4.79-4.79,12.58,0,17.37l10.71,10.71c4.79,4.79,12.58,4.79,17.37,0l2.89-2.89,6.06,6.06-16.85,16.85ZM379.2,268.84l-10.92,10.92c-3.01,3.01-7.92,3.01-10.93,0l-43.25-43.25c-3.01-3.01-3.01-7.92,0-10.93l10.92-10.92,54.18,54.18Z" fill="#fff" stroke-width="0"/><path d="M274.56,192.08v6.27h-56.83v-6.27c0-1.43-1.16-2.59-2.59-2.59s-2.59,1.16-2.59,2.59v6.27h-7.3c-1.43,0-2.59,1.16-2.59,2.59v18.04c0,6.08,4.22,11.19,9.89,12.55v24.19c0,4.92,4,8.92,8.92,8.92h49.36c4.92,0,8.92-4,8.92-8.92v-24.19c5.67-1.36,9.89-6.47,9.89-12.55v-18.04c0-1.43-1.16-2.59-2.59-2.59h-7.3v-6.27s-.38-2.67-2.63-2.67-2.55,2.67-2.55,2.67ZM274.56,255.72c0,2.06-1.68,3.74-3.74,3.74h-49.36c-2.06,0-3.74-1.68-3.74-3.74v-23.83h8.56v4.09c0,6.77,5.51,12.28,12.28,12.28h15.14c6.77,0,12.28-5.51,12.28-12.28v-4.09h8.56v23.83ZM284.45,203.53v15.45c0,4.26-3.47,7.73-7.73,7.73h-61.16c-4.26,0-7.73-3.47-7.73-7.73v-15.45h76.62Z" fill="#fff" stroke-width="0"/><path d="M136.4,285.31l17.1,17.1c3.48,3.48,9.14,3.48,12.61,0l34.9-34.9c3.48-3.48,3.48-9.14,0-12.61l-17.1-17.1c3.04-4.97,2.42-11.57-1.88-15.87l-12.76-12.76c-1.01-1.01-2.65-1.01-3.66,0l-5.16,5.16-4.43-4.43c-1.01-1.01-2.65-1.01-3.66,0-1.01,1.01-1.01,2.65,0,3.66l4.43,4.43-40.19,40.19-4.43-4.43c-1.01-1.01-2.65-1.01-3.66,0-1.01,1.01-1.01,2.65,0,3.66l4.43,4.43-5.16,5.16c-1.01,1.01-1.01,2.65,0,3.66l12.76,12.76c4.3,4.3,10.9,4.92,15.87,1.88ZM197.35,258.55c1.46,1.46,1.46,3.83,0,5.28l-34.9,34.9c-1.46,1.46-3.83,1.46-5.28,0l-16.85-16.85,6.06-6.06,2.89,2.89c4.79,4.79,12.58,4.79,17.37,0l10.71-10.71c4.79-4.79,4.79-12.58,0-17.37l-2.89-2.89,6.06-6.06,16.85,16.85ZM167.45,214.66l10.92,10.92c3.01,3.01,3.01,7.92,0,10.93l-43.25,43.25c-3.01,3.01-7.92,3.01-10.93,0l-10.92-10.92,54.18-54.18Z" fill="#fff" stroke-width="0"/></svg>